<?xml version="1.0" encoding="UTF-8" standalone="no"?>
<svg
   width="200"
   height="200"
   id="svg34271"
   version="1.1"
   inkscape:version="1.3.2 (091e20e, 2023-11-25)"
   sodipodi:docname="cunostinte.svg"
   inkscape:export-filename="../../../../../../../../GDrivePersonal/geo-spatial.org/Grafica/Png/logo-glob-blue.png"
   inkscape:export-xdpi="600"
   inkscape:export-ydpi="600"
   xml:space="preserve"
   xmlns:inkscape="http://www.inkscape.org/namespaces/inkscape"
   xmlns:sodipodi="http://sodipodi.sourceforge.net/DTD/sodipodi-0.dtd"
   xmlns="http://www.w3.org/2000/svg"
   xmlns:svg="http://www.w3.org/2000/svg"
   xmlns:rdf="http://www.w3.org/1999/02/22-rdf-syntax-ns#"
   xmlns:cc="http://creativecommons.org/ns#"
   xmlns:dc="http://purl.org/dc/elements/1.1/"><defs
     id="defs34273"><clipPath
       id="id0"><path
         id="path137"
         d="M 0.0437956,1.95947 H 17.307496 V 9.06393 H 0.0437956 Z" /></clipPath><style
       id="style134"
       type="text/css">.str0 { stroke:#283947;stroke-width:0.0785229 }
.str1 { stroke:#1F1A17;stroke-width:0.087282 }
.str2 { stroke:#283847;stroke-width:0.087282 }
.fil3 { fill:none }
.fil2 { fill:#BAB3D6 }
.fil1 { fill:white }
.fil5 { fill:#283847 }
.fil0 { fill:#283947 }
.fil4 { fill:#92B3C9 }
.fnt1 { font-weight:normal;font-size:1.01791;font-family:'ITC Eras Demi' }
.fnt0 { font-weight:normal;font-size:1.49843;font-family:'Arial' }
</style><font
       style="font-variant:normal;font-weight:400"
       vert-adv-y="0"
       vert-origin-y="0"
       vert-origin-x="0"
       horiz-adv-x="0"
       horiz-origin-y="0"
       horiz-origin-x="0"
       font-weight="400"
       font-variant="normal"
       id="FontID0"><font-face
         id="font-face80"
         font-family="Arial" /><missing-glyph
         id="missing-glyph82"><path
           id="path84"
           d="M0 0z" /></missing-glyph><glyph
         id="glyph86"
         horiz-adv-x="277"
         unicode="."><path
           id="path88"
           d="M90.8466 0l0 100.199 100.131 0 0 -100.199 -100.131 0z" /></glyph><glyph
         id="glyph90"
         horiz-adv-x="332"
         unicode="-"><path
           id="path92"
           d="M31.6347 214.841l0 88.302 270.201 0 0 -88.302 -270.201 0z" /></glyph><glyph
         id="glyph94"
         horiz-adv-x="222"
         unicode="l"><path
           id="path96"
           d="M64.0259 0l0 715.838 87.8206 0 0 -715.838 -87.8206 0z" /></glyph><glyph
         id="glyph98"
         horiz-adv-x="222"
         unicode="i"><path
           id="path100"
           d="M66.3641 614.676l0 101.162 87.9582 0 0 -101.162 -87.9582 0zm0 -614.676l0 518.534 87.9582 0 0 -518.534 -87.9582 0z" /></glyph><glyph
         id="glyph102"
         horiz-adv-x="556"
         unicode="a"><path
           id="path104"
           d="M404.305 64.0259c-32.6663,-27.7147 -63.9571,-47.1769 -93.9413,-58.6617 -30.1905,-11.3472 -62.5129,-17.0552 -97.036,-17.0552 -57.0112,0 -100.681,13.8918 -131.353,41.6753 -30.4656,27.8523 -45.8015,63.5445 -45.8015,106.664 0,25.5141 5.63923,48.6899 17.3303,69.6651 11.4848,21.0439 26.6832,37.8241 45.3201,50.5467 18.8433,12.6539 39.8184,22.2818 63.3381,28.8151 17.1928,4.47012 43.1882,9.00901 77.9864,13.1353 71.0405,8.52761 123.375,18.4994 156.867,30.328 0.343855,12.0349 0.481397,19.6685 0.481397,22.832 0,35.8297 -8.3213,61.2062 -24.9639,75.7169 -22.3506,20.0124 -55.8421,29.8466 -100.062,29.8466 -41.3314,0 -71.797,-7.22096 -91.6718,-21.7317 -19.5998,-14.4419 -34.1104,-40.1623 -43.6009,-76.9548l-85.8951 11.8286c7.8399,36.655 20.7001,66.5016 38.5118,88.9898 17.8805,22.6945 43.8759,40.1623 77.7113,52.3348 33.8354,12.1725 72.9661,18.3619 117.667,18.3619 44.2886,0 80.1183,-5.36414 107.833,-15.6798 27.646,-10.522 48.0022,-23.5197 61.1375,-39.337 12.9977,-15.8173 22.0067,-35.6922 27.3021,-59.8308 2.88838,-14.9921 4.40135,-42.0191 4.40135,-81.0123l0 -117.186c0,-81.8376 1.78805,-133.485 5.63923,-155.01 3.64487,-21.6629 11.1409,-42.5005 22.1443,-62.3066l-91.8094 0c-9.00901,18.1556 -14.9921,39.4746 -17.5366,64.0259zm-7.28973 196.341c-32.0473,-13.204 -79.8432,-24.2074 -143.525,-33.354 -36.1736,-5.15783 -61.8252,-11.0034 -76.6797,-17.5366 -14.9921,-6.46448 -26.6144,-15.9549 -34.6606,-28.6775 -8.18376,-12.4476 -12.31,-26.2705 -12.31,-41.6065 0,-23.5197 9.00901,-43.0507 26.6832,-58.6617 17.6742,-15.5423 43.6696,-23.3822 77.7801,-23.3822 33.8354,0 64.0259,7.3585 90.3652,22.2131 26.3393,14.7858 45.8015,35.142 58.1803,60.7936 9.49041,19.8748 14.1668,49.1713 14.1668,87.8206l0 32.3912z" /></glyph><glyph
         id="glyph106"
         horiz-adv-x="556"
         unicode="o"><path
           id="path108"
           d="M33.1477 259.336c0,96.0044 26.6832,167.182 80.1871,213.328 44.4949,38.3055 98.824,57.6989 162.987,57.6989 71.3156,0 129.702,-23.3822 174.816,-70.2153 45.3889,-46.6268 67.877,-111.134 67.877,-193.453 0,-66.8455 -10.0406,-119.387 -29.9842,-157.555 -20.0124,-38.3055 -49.1713,-67.9458 -87.3392,-89.1273 -38.3743,-21.1815 -80.0495,-31.7035 -125.37,-31.7035 -72.4847,0 -131.146,23.1758 -175.985,69.8714 -44.8387,46.4892 -67.1893,113.472 -67.1893,201.155zm90.3652 0c0,-66.5016 14.5107,-116.154 43.4633,-149.164 29.0214,-33.1477 65.5388,-49.6527 109.346,-49.6527 43.6696,0 79.9807,16.6426 109.002,49.7902 28.8151,33.2164 43.3258,83.8319 43.3258,151.847 0,64.1634 -14.5107,112.853 -43.6696,145.863 -29.1589,33.0101 -65.3325,49.5152 -108.658,49.5152 -43.8072,0 -80.3246,-16.5051 -109.346,-49.3776 -28.9526,-32.8038 -43.4633,-82.4565 -43.4633,-148.821z" /></glyph><glyph
         id="glyph110"
         horiz-adv-x="556"
         unicode="e"><path
           id="path112"
           d="M420.81 166.976l90.8466 -11.1409c-14.3044,-53.16 -40.85,-94.3539 -79.4993,-123.65 -38.8556,-29.1589 -88.302,-43.8759 -148.477,-43.8759 -75.8545,0 -136.029,23.3822 -180.318,70.0089 -44.5636,46.6956 -66.7079,112.166 -66.7079,196.548 0,87.2705 22.4881,154.941 67.3269,203.15 45.045,48.1397 103.157,72.3472 174.885,72.3472 69.3212,0 125.989,-23.726 169.796,-70.8342 44.0135,-47.1769 66.0202,-113.679 66.0202,-199.161 0,-5.36414 -0.206313,-13.204 -0.550168,-23.5197l-386.631 0c3.16347,-57.0112 19.3247,-100.681 48.3461,-130.871 28.9526,-30.328 64.9887,-45.4577 108.314,-45.4577 32.1849,0 59.6933,8.45884 82.5253,25.5141 22.832,16.7801 40.7812,43.8072 54.1228,80.9435zm-288.495 142.219l289.526 0c-3.85118,43.4633 -14.9921,76.3359 -33.1477,97.9988 -28.0586,33.8354 -64.3697,50.8218 -108.865,50.8218 -40.2998,0 -74.3415,-13.5479 -101.85,-40.5062 -27.5084,-27.027 -42.6381,-63.2006 -45.664,-108.314z" /></glyph><glyph
         id="glyph114"
         horiz-adv-x="556"
         unicode="g"><path
           id="path116"
           d="M49.859 -42.9819l85.4824 -12.6539c3.50732,-26.3393 13.4791,-45.5264 29.6403,-57.6989 21.8692,-16.1612 51.7158,-24.345 89.3336,-24.345 40.85,0 72.2096,8.18376 94.3539,24.345 22.1443,16.3675 36.9988,39.1995 44.8387,68.3584 4.67643,17.9492 6.67079,55.4982 6.32694,112.785 -38.3055,-45.1138 -86.1701,-67.8083 -143.525,-67.8083 -71.3156,0 -126.47,25.6516 -165.463,77.1611 -38.9932,51.372 -58.6617,113.197 -58.6617,184.994 0,49.5152 9.00901,95.1791 26.8207,136.992 18.018,41.8816 44.0135,74.204 77.9864,97.036 34.0417,22.6257 73.9977,34.1792 119.868,34.1792 61.1375,0 111.615,-24.8951 151.296,-74.3415l0 62.5129 81.1499 0 0 -448.181c0,-80.6685 -8.3213,-138.024 -24.62,-171.653 -16.5051,-33.6978 -42.5005,-60.381 -78.1927,-79.8432 -35.6922,-19.531 -79.4993,-29.3652 -131.628,-29.3652 -61.894,0 -111.891,14.0293 -149.852,41.8128 -38.1679,27.8523 -56.5298,69.6651 -55.1544,125.713zm72.6222 311.464c0,-68.0146 13.5479,-117.667 40.7125,-148.821 26.9583,-31.3596 60.7936,-46.8331 101.506,-46.8331 40.2998,0 74.1352,15.4735 101.437,46.4892 27.3709,31.1533 41.0563,79.8432 41.0563,146.345 0,63.4757 -14.0293,111.34 -42.2254,143.525 -28.1274,32.1161 -62.169,48.3461 -101.781,48.3461 -38.9932,0 -72.2096,-15.8861 -99.718,-47.7271 -27.3021,-31.6347 -40.9876,-78.8116 -40.9876,-141.325z" /></glyph><glyph
         id="glyph118"
         horiz-adv-x="332"
         unicode="r"><path
           id="path120"
           d="M64.9887 0l0 518.534 79.0179 0 0 -78.5366c20.1499,36.655 38.8556,60.9999 55.9796,72.691 16.9865,11.6223 35.8297,17.6742 56.3235,17.6742 29.7091,0 59.6933,-9.55918 90.3652,-28.3337l-30.328 -81.7c-21.319,12.8602 -42.8444,19.1871 -64.3697,19.1871 -19.3247,0 -36.4487,-5.84554 -51.7846,-17.3303 -15.3359,-11.6911 -26.2018,-27.7147 -32.6663,-48.2085 -9.83426,-31.1533 -14.717,-65.3325 -14.717,-102.469l0 -271.508 -87.8206 0z" /></glyph><glyph
         id="glyph122"
         horiz-adv-x="277"
         unicode="t"><path
           id="path124"
           d="M257.823 78.6741l12.6539 -77.6425c-24.62,-5.2266 -46.8331,-7.8399 -66.2953,-7.8399 -32.0473,0 -56.6674,4.95152 -74.3415,15.1296 -17.5366,10.0406 -29.8466,23.3134 -36.9988,39.8184 -7.15219,16.3675 -10.8658,51.0281 -10.8658,103.707l0 298.329 -64.5073 0 0 68.3584 64.5073 0 0 128.464 87.5456 52.6786 0 -181.143 88.302 0 0 -68.3584 -88.302 0 0 -303.143c0,-25.1702 1.51296,-41.1939 4.47012,-48.3461 3.16347,-7.15219 8.18376,-12.8602 15.1984,-17.1928 6.94588,-4.12626 16.9865,-6.32694 29.9842,-6.32694 9.83426,0 22.6257,1.16911 38.6493,3.50732z" /></glyph><glyph
         id="glyph126"
         horiz-adv-x="556"
         unicode="p"><path
           id="path128"
           d="M66.0202 -198.68l0 717.213 79.9807 0 0 -67.3956c18.8433,26.3393 40.1623,46.2142 64.0259,59.3494 23.6572,13.204 52.4723,19.8748 86.3077,19.8748 44.3573,0 83.3505,-11.5535 117.186,-34.1792 33.9729,-22.832 59.487,-55.0168 76.6797,-96.4858 17.3303,-41.5377 25.9955,-87.0642 25.9955,-136.511 0,-53.0225 -9.55918,-100.887 -28.6775,-143.388 -19.0496,-42.4317 -46.6956,-74.9605 -83.0067,-97.6549 -36.3111,-22.4881 -74.4791,-33.8354 -114.504,-33.8354 -29.3652,0 -55.4982,6.1894 -78.8116,18.4994 -23.3822,12.3788 -42.363,28.0586 -57.3551,46.8331l0 -252.321 -87.8206 0zm79.4993 454.989c0,-66.6392 13.4791,-115.948 40.5062,-147.995 26.9583,-31.841 59.8308,-47.7959 98.1363,-47.7959 38.9932,0 72.4847,16.5051 100.337,49.6527 27.8523,33.0101 41.8128,84.1758 41.8128,153.497 0,66.1578 -13.6167,115.467 -40.7812,148.477 -27.1646,32.8726 -59.6933,49.3776 -97.3798,49.3776 -37.4802,0 -70.6279,-17.5366 -99.5117,-52.5411 -28.8151,-35.0045 -43.1195,-85.9638 -43.1195,-152.672z" /></glyph><glyph
         id="glyph130"
         horiz-adv-x="500"
         unicode="s"><path
           id="path132"
           d="M30.8094 154.804l86.8579 13.6854c4.81397,-34.7982 18.4994,-61.4813 40.85,-80.1871 22.1443,-18.4994 53.2976,-27.7835 93.4599,-27.7835 40.3686,0 70.3528,8.3213 89.8838,24.62 19.4622,16.5051 29.2965,35.8297 29.2965,57.8365 0,20.0124 -8.66515,35.5546 -25.9955,47.0394 -11.9662,7.8399 -42.0191,17.6742 -89.815,29.6403 -64.3697,16.3675 -109.208,30.328 -134.035,42.363 -24.8264,11.8286 -43.8072,28.3337 -56.6674,49.3089 -12.7914,20.9752 -19.3247,44.151 -19.3247,69.5275 0,23.1758 5.36414,44.4949 16.0237,64.1634 10.522,19.8061 24.9639,36.1736 43.1882,49.1713 13.6167,9.9718 32.3224,18.637 55.7733,25.6516 23.726,7.01465 49.0338,10.522 76.0608,10.522 40.6437,0 76.2671,-6.05185 107.145,-17.6742 30.8094,-11.6911 53.5039,-27.5084 68.1521,-47.5208 14.6482,-20.1499 24.6888,-46.8331 30.1905,-80.3246l-85.8263 -11.8286c-4.05749,26.6832 -15.3359,47.452 -34.0417,62.5129 -18.637,14.9921 -45.1826,22.4881 -79.293,22.4881 -40.3686,0 -69.1837,-6.67079 -86.3765,-20.0124 -17.3303,-13.3416 -25.9955,-29.0214 -25.9955,-46.8331 0,-11.4848 3.64487,-21.6629 10.8658,-30.8094 7.15219,-9.55918 18.2931,-17.1928 33.629,-23.5197 8.87147,-3.16347 34.6606,-10.6595 77.7113,-22.3506 62.169,-16.6426 105.495,-30.1905 129.977,-40.85 24.6888,-10.4532 44.0135,-25.9955 57.974,-46.1454 14.0293,-20.1499 21.0439,-45.1826 21.0439,-75.1668 0,-29.2965 -8.66515,-56.8049 -25.7204,-82.8004 -17.124,-25.8579 -41.8128,-45.8703 -73.9977,-60.0371 -32.1161,-14.1668 -68.6335,-21.1815 -109.277,-21.1815 -67.5332,0 -118.836,14.0293 -154.185,42.0191 -35.3483,27.9898 -57.8365,69.5275 -67.5332,124.476z" /></glyph></font><font
       style="font-variant:normal;font-weight:400"
       vert-adv-y="0"
       vert-origin-y="0"
       vert-origin-x="0"
       horiz-adv-x="0"
       horiz-origin-y="0"
       horiz-origin-x="0"
       font-weight="400"
       font-variant="normal"
       id="FontID1"><font-face
         id="font-face7"
         font-family="ITC Eras Demi" /><missing-glyph
         id="missing-glyph9"><path
           id="path11"
           d="M0 0z" /></missing-glyph><glyph
         id="glyph13"
         horiz-adv-x="727"
         unicode="&amp;"><path
           id="path15"
           d="M613.991 118.141c37.052,62.0571 54.9706,134.035 54.9706,206.013l-120.976 0c-2.0247,-35.9384 -4.96052,-72.9905 -19.0322,-107.005 -54.9706,61.0447 -199.939,195.991 -199.939,277.991 0,52.0348 46.9731,78.0522 94.9585,78.0522 37.052,0 74.0028,-12.047 108.018,-22.9804l-3.94817 108.929c-47.0743,12.047 -95.0597,20.0445 -143.045,20.0445 -113.991,0 -199.028,-61.0447 -199.028,-159.04 0,-44.9484 23.0816,-85.9486 47.0743,-123.001 -89.998,-48.9978 -171.998,-100.02 -171.998,-215.023 0,-109.941 92.9338,-194.169 249.949,-194.169 75.0152,0 143.045,21.2594 201.053,69.2448l54.9706 -56.9953 158.939 0 -111.966 117.939zm-167.949 20.0445c-32.0915,-34.015 -73.0917,-52.0348 -121.077,-52.0348 -61.9559,0 -130.998,28.0421 -130.998,101.033 0,59.02 52.0348,92.9338 99.0079,120.976 47.9854,-60.0324 100.02,-115.003 153.067,-169.974z" /></glyph><glyph
         id="glyph17"
         horiz-adv-x="315"
         unicode=" " /><glyph
         id="glyph19"
         horiz-adv-x="751"
         unicode="D"><path
           id="path21"
           d="M101.033 667.139c0,-266.957 -20.0445,-562.968 -30.0668,-666.937l288.014 0c259.061,0 374.975,156.003 374.975,362.928 0,220.996 -135.959,304.009 -305.932,304.009l-326.989 0zm140.919 -105.993l170.075 0c140.008,0 178.984,-104.981 178.984,-195.991 0,-128.973 -61.0447,-258.959 -260.984,-258.959l-107.005 0 18.931 454.95z" /></glyph><glyph
         id="glyph23"
         horiz-adv-x="666"
         unicode="K"><path
           id="path25"
           d="M227.981 0.20247c5.06175,259.972 18.0198,461.936 30.0668,666.937l-156.003 0c0,-166.937 -13.0593,-457.987 -31.0792,-666.937l157.016 0zm443.005 666.937l-174.023 0c-76.9387,-108.929 -162.988,-210.974 -247.014,-313.93 83.0128,-117.028 168.05,-232.031 244.078,-353.007l182.932 0c-90.9091,117.939 -182.932,233.954 -268.982,356.955l263.009 309.982z" /></glyph><glyph
         id="glyph27"
         horiz-adv-x="525"
         unicode="S"><path
           id="path29"
           d="M468.01 661.166c-52.0348,11.0346 -104.981,18.0198 -158.028,18.0198 -117.939,0 -231.018,-53.0472 -231.018,-169.974 0,-164.001 258.048,-235.068 258.048,-340.049 0,-56.9953 -62.0571,-75.0152 -109.03,-75.0152 -60.9435,0 -120.976,18.0198 -175.947,43.0249l10.9334 -123.001c62.0571,-13.9704 124.013,-26.2199 187.994,-26.2199 185.058,0 236.991,106.196 236.991,180.198 0,158.028 -257.947,226.969 -257.947,330.026 0,44.0373 45.9607,75.0152 109.03,75.0152 47.9854,0 94.9585,-13.0593 138.996,-29.0545l-10.0223 117.028z" /></glyph><glyph
         id="glyph31"
         horiz-adv-x="635"
         unicode="d"><path
           id="path33"
           d="M438.955 0.20247l130.998 0c0,199.939 19.0322,550.01 30.0668,666.937l-142.033 0c0,-86.9609 -1.01235,-121.988 -3.94817,-166.937 -33.0026,4.96052 -66.0053,9.00992 -99.0079,9.00992 -199.028,0 -304.009,-127.05 -304.009,-294.999 0,-126.038 79.9757,-226.26 210.974,-226.26 80.9881,0 135.048,31.1804 179.996,91.2128l2.0247 0 -5.06175 -78.9634zm10.0223 399.98c-1.01235,-59.02 -2.0247,-125.025 -11.9457,-183.033 -12.047,-66.0053 -52.0348,-130.998 -127.05,-130.998 -80.9881,0 -119.964,60.0324 -119.964,136.06 0,107.005 61.9559,189.006 190.018,189.006 22.9804,0 45.9607,-4.0494 68.9411,-11.0346z" /></glyph><glyph
         id="glyph35"
         horiz-adv-x="272"
         unicode="l"><path
           id="path37"
           d="M208.038 0.20247c6.98522,222.009 15.9951,444.928 33.0026,666.937l-144.058 0c-4.96052,-266.957 -18.0198,-461.936 -31.9903,-666.937l143.045 0z" /></glyph><glyph
         id="glyph39"
         horiz-adv-x="618"
         unicode="o"><path
           id="path41"
           d="M333.974 509.212c-166.937,0 -282.952,-103.057 -282.952,-273.031 0,-108.018 64.9929,-248.228 266.957,-248.228 230.006,0 282.041,172.201 282.041,269.184 0,162.077 -109.03,252.075 -266.046,252.075zm-1.01235 -97.9955c91.0103,0 128.062,-68.03 128.062,-151.043 0,-88.9856 -41.0002,-174.023 -141.02,-174.023 -86.0498,0 -129.986,67.0176 -129.986,146.993 0,93.035 38.9755,178.072 142.944,178.072z" /></glyph><glyph
         id="glyph43"
         horiz-adv-x="561"
         unicode="e"><path
           id="path45"
           d="M547.985 241.142c3.03705,15.9951 5.97287,37.052 5.97287,58.0077 0,142.033 -97.9955,210.063 -232.942,210.063 -234.967,0 -269.994,-187.082 -269.994,-278.093 0,-68.9411 20.9557,-243.167 277.991,-243.167 54.9706,0 109.03,7.08645 161.976,19.2347l18.0198 104.981c-54.0595,-17.0075 -109.03,-31.9903 -166.026,-31.9903 -89.998,0 -152.966,52.0348 -152.966,144.969l0 15.9951 357.967 0zm-354.019 67.0176c9.00992,64.9929 54.0595,118.04 124.013,118.04 76.0275,0 103.057,-41.0002 103.057,-118.04l-227.07 0z" /></glyph><glyph
         id="glyph47"
         horiz-adv-x="638"
         unicode="g"><path
           id="path49"
           d="M107.005 -209.05c72.9905,-17.9186 146.993,-27.9409 222.009,-27.9409 143.956,0 240.939,45.9607 243.977,203.989 4.0494,229.196 17.0075,412.128 26.0174,518.121 -70.9658,13.0593 -143.045,24.0939 -215.023,24.0939 -293.987,0 -332.962,-209.05 -332.962,-297.024 0,-132.011 80.9881,-218.162 215.023,-218.162 71.9781,0 135.959,30.1681 174.934,87.1634l2.0247 0c-4.96052,-111.156 1.01235,-220.186 -150.03,-220.186 -66.0053,0 -129.986,17.0075 -192.954,38.9755l6.98522 -109.03zm349.97 612.168c-2.93582,-61.9559 -2.93582,-120.976 -11.9457,-177.971 -12.047,-68.9411 -56.9953,-133.023 -133.023,-133.023 -80.9881,0 -121.988,53.0472 -121.988,130.998 0,53.0472 18.0198,188.095 187.994,188.095 26.0174,0 52.9459,-3.03705 78.9634,-8.09881z" /></glyph><glyph
         id="glyph51"
         horiz-adv-x="643"
         unicode="n"><path
           id="path53"
           d="M232.031 497.165l-140.008 0c-3.03705,-193.966 -13.0593,-346.021 -27.0298,-496.963l143.045 0c1.01235,44.9484 1.92347,186.981 17.0075,266.957 13.9704,71.9781 56.9953,129.986 135.959,129.986 72.9905,0 105.993,-35.0273 105.993,-107.005 0,-95.9708 -10.0223,-193.966 -22.9804,-289.937l148.006 0c0,149.929 13.9704,289.937 13.9704,350.982 0,117.028 -79.9757,158.028 -185.969,158.028 -80.9881,0 -149.018,-24.0939 -191.031,-93.035l-2.0247 0 5.06175 80.9881z" /></glyph><glyph
         id="glyph55"
         horiz-adv-x="272"
         unicode="i"><path
           id="path57"
           d="M87.9733 497.165c-1.01235,-166.026 -6.98522,-331.95 -22.9804,-496.963l149.018 0c1.01235,200.952 5.97287,348.957 19.0322,496.963l-145.07 0zm145.07 84.0251l3.94817 93.9461 -143.956 0 -2.0247 -93.9461 142.033 0z" /></glyph><glyph
         id="glyph59"
         horiz-adv-x="568"
         unicode="a"><path
           id="path61"
           d="M333.974 83.2152c-25.0051,-9.00992 -51.0225,-15.084 -77.951,-15.084 -39.9879,0 -84.0251,12.047 -84.0251,59.02 0,88.9856 167.038,84.0251 218.971,129.986 -9.00992,-167.949 -11.9457,-212.999 -17.0075,-256.935l138.996 0c0,149.929 17.0075,307.957 17.0075,378.923 0,109.03 -105.993,130.087 -193.966,130.087 -72.9905,0 -144.969,-12.047 -216.036,-29.0545l-14.9828 -93.035c62.0571,24.0939 128.062,42.0126 194.979,42.0126 37.052,0 91.0103,-6.98522 91.0103,-54.9706 0,-108.018 -351.994,-43.0249 -351.994,-244.989 0,-45.0496 17.0075,-141.223 178.072,-141.223 31.9903,0 61.9559,3.03705 91.9214,9.00992l25.0051 86.2523z" /></glyph><glyph
         id="glyph63"
         horiz-adv-x="643"
         unicode="h"><path
           id="path65"
           d="M94.9585 667.139c-1.92347,-223.021 -11.9457,-444.928 -29.9656,-666.937l143.045 0c1.01235,44.9484 1.92347,186.981 17.0075,266.957 13.9704,71.9781 56.9953,129.986 135.959,129.986 72.9905,0 105.993,-35.0273 105.993,-107.005 0,-95.9708 -10.0223,-193.966 -22.9804,-289.937l148.006 0c0,149.929 13.9704,289.937 13.9704,350.982 0,117.028 -79.9757,158.028 -185.969,158.028 -87.0622,0 -153.979,-22.0692 -195.991,-96.0721l-2.0247 2.0247c3.03705,82.0004 10.0223,167.038 15.9951,251.974l-143.045 0z" /></glyph><glyph
         id="glyph67"
         horiz-adv-x="372"
         unicode="t"><path
           id="path69"
           d="M372.039 399.17l3.94817 97.9955 -125.025 0 4.0494 118.951 -128.973 -27.9409 -5.06175 -91.0103 -74.0028 0 -3.94817 -97.9955 69.9534 0c-2.0247,-21.968 -15.9951,-231.018 -15.9951,-282.041 0,-97.9955 46.9731,-129.176 141.02,-129.176 37.9632,0 75.0152,5.06175 111.966,15.1853l18.0198 103.057c-23.9927,-6.0741 -39.9879,-12.047 -79.9757,-12.047 -44.0373,0 -52.0348,34.015 -52.0348,76.0275 0,35.0273 9.00992,185.969 11.0346,228.994l125.025 0z" /></glyph><glyph
         id="glyph71"
         horiz-adv-x="873"
         unicode="w"><path
           id="path73"
           d="M526.017 497.165l-136.971 0 -127.05 -358.98 -2.0247 0 -111.966 358.98 -133.023 0c60.0324,-165.013 117.028,-330.026 169.974,-496.963l136.06 0 125.936 349.97 2.0247 0 88.9856 -349.97 138.996 0c68.03,166.937 143.045,330.937 215.023,496.963l-130.998 0 -138.996 -358.98 -2.0247 0 -93.9461 358.98z" /></glyph><glyph
         id="glyph75"
         horiz-adv-x="389"
         unicode="r"><path
           id="path77"
           d="M217.048 497.165l-133.023 0c0,-222.009 -10.0223,-356.044 -19.0322,-496.963l138.996 0 0 61.9559c0,58.0077 1.01235,164.001 12.047,217.959 13.9704,70.0547 54.9706,117.028 126.949,117.028 19.0322,0 36.0397,-3.94817 54.0595,-10.0223l-4.0494 117.028c-13.9704,3.03705 -28.0421,5.06175 -43.0249,5.06175 -61.9559,0 -102.956,-30.0668 -133.934,-79.0646l-2.0247 0 3.03705 67.0176z" /></glyph></font>
</defs>
</svg>
