<?xml version="1.0" encoding="UTF-8" standalone="no"?>
<!-- Created with Inkscape (http://www.inkscape.org/) -->

<svg
   width="200"
   height="200"
   viewBox="0 0 52.916665 52.916666"
   version="1.1"
   id="svg1"
   xml:space="preserve"
   inkscape:version="1.4 (e7c3feb1, 2024-10-09)"
   sodipodi:docname="siteul-vechi.svg"
   xmlns:inkscape="http://www.inkscape.org/namespaces/inkscape"
   xmlns:sodipodi="http://sodipodi.sourceforge.net/DTD/sodipodi-0.dtd"
   xmlns="http://www.w3.org/2000/svg"
   xmlns:svg="http://www.w3.org/2000/svg"><sodipodi:namedview
     id="namedview1"
     pagecolor="#ffffff"
     bordercolor="#000000"
     borderopacity="0.25"
     inkscape:showpageshadow="2"
     inkscape:pageopacity="0.0"
     inkscape:pagecheckerboard="0"
     inkscape:deskcolor="#d1d1d1"
     inkscape:document-units="mm"
     inkscape:zoom="3.2698009"
     inkscape:cx="111.47468"
     inkscape:cy="119.1204"
     inkscape:window-width="2056"
     inkscape:window-height="1204"
     inkscape:window-x="0"
     inkscape:window-y="44"
     inkscape:window-maximized="1"
     inkscape:current-layer="layer1" /><defs
     id="defs1" /><g
     inkscape:label="Layer 1"
     inkscape:groupmode="layer"
     id="layer1"><g
       font-style="normal"
       stroke-width="1"
       font-weight="400"
       font-size="54.1667px"
       font-family="'.AppleSystemUIFont'"
       stroke-linejoin="bevel"
       stroke-linecap="square"
       stroke="#000000"
       stroke-opacity="1"
       fill="none"
       id="g1"
       transform="matrix(0.08466653,0,0,0.08466653,90.450634,1.3598217)"
       style="fill-rule:evenodd" /><g
       font-style="normal"
       stroke-width="1"
       font-weight="400"
       font-size="54.1667px"
       font-family="'.AppleSystemUIFont'"
       stroke-linejoin="bevel"
       stroke-linecap="square"
       stroke="#000000"
       stroke-opacity="1"
       fill="none"
       id="g2"
       transform="matrix(0.08466653,0,0,0.08466653,90.450634,1.3598217)"
       style="fill-rule:evenodd" /><g
       font-style="normal"
       stroke-width="1"
       font-weight="400"
       font-size="54.1667px"
       font-family="'.AppleSystemUIFont'"
       stroke-linejoin="bevel"
       stroke-linecap="square"
       transform="matrix(0.99975085,0,0,0.99975085,90.450634,1.3598217)"
       stroke="#000000"
       stroke-opacity="1"
       fill="none"
       id="g3"
       style="fill-rule:evenodd" /><g
       font-style="normal"
       stroke-width="1"
       font-weight="400"
       font-size="54.1667px"
       font-family="'.AppleSystemUIFont'"
       stroke-linejoin="bevel"
       stroke-linecap="square"
       transform="matrix(0.08464545,0,0,0.08464545,90.450634,1.3598217)"
       stroke="#000000"
       stroke-opacity="1"
       fill="none"
       id="g4"
       style="fill-rule:evenodd" /><g
       font-style="normal"
       stroke-width="1"
       font-weight="400"
       font-size="54.1667px"
       font-family="'.AppleSystemUIFont'"
       stroke-linejoin="bevel"
       stroke-linecap="square"
       transform="matrix(0.08464545,0,0,0.08464545,90.450634,1.3598217)"
       stroke="#000000"
       stroke-opacity="1"
       fill="none"
       id="g6"
       style="fill-rule:evenodd" /><g
       font-style="normal"
       stroke-width="1"
       font-weight="400"
       font-size="54.1667px"
       font-family="'.AppleSystemUIFont'"
       stroke-linejoin="bevel"
       stroke-linecap="square"
       transform="matrix(0.99975085,0,0,0.99975085,90.450634,1.3598217)"
       stroke="#000000"
       stroke-opacity="1"
       fill="none"
       id="g7"
       style="fill-rule:evenodd" /><g
       font-style="normal"
       stroke-width="1"
       font-weight="400"
       font-size="54.1667px"
       font-family="'.AppleSystemUIFont'"
       stroke-linejoin="bevel"
       stroke-linecap="square"
       transform="matrix(0.99975085,0,0,0.99975085,90.450634,1.3598217)"
       stroke="#000000"
       stroke-opacity="1"
       fill="none"
       id="g8"
       style="fill-rule:evenodd" /><g
       font-style="normal"
       stroke-width="1"
       font-weight="400"
       font-size="54.1667px"
       font-family="'.AppleSystemUIFont'"
       stroke-linejoin="bevel"
       stroke-linecap="square"
       transform="matrix(0.99975085,0,0,0.99975085,90.450634,1.3598217)"
       stroke="#000000"
       stroke-opacity="1"
       fill="none"
       id="g9"
       style="fill-rule:evenodd" /><g
       font-style="normal"
       stroke-width="1"
       font-weight="400"
       font-size="54.1667px"
       font-family="'.AppleSystemUIFont'"
       stroke-linejoin="bevel"
       stroke-linecap="square"
       transform="matrix(0.99975085,0,0,0.99975085,90.450634,1.3598217)"
       stroke="#000000"
       stroke-opacity="1"
       fill="none"
       id="g10"
       style="fill-rule:evenodd" /><g
       font-style="normal"
       stroke-width="1"
       font-weight="400"
       font-size="54.1667px"
       font-family="'.AppleSystemUIFont'"
       stroke-linejoin="bevel"
       stroke-linecap="square"
       transform="matrix(0.99975085,0,0,0.99975085,94.900775,5.3649465)"
       stroke="#000000"
       stroke-opacity="1"
       fill="none"
       id="g11"
       style="fill-rule:evenodd" /><g
       font-style="normal"
       stroke-width="1"
       font-weight="400"
       font-size="54.1667px"
       font-family="'.AppleSystemUIFont'"
       stroke-linejoin="bevel"
       stroke-linecap="square"
       transform="matrix(0.99975085,0,0,0.99975085,94.900775,5.3649465)"
       stroke="#000000"
       stroke-opacity="1"
       fill="none"
       id="g13"
       style="fill-rule:evenodd" /><g
       font-style="normal"
       stroke-width="1"
       font-weight="400"
       font-size="54.1667px"
       font-family="'.AppleSystemUIFont'"
       stroke-linejoin="bevel"
       stroke-linecap="square"
       transform="matrix(0.99975085,0,0,0.99975085,94.900775,5.3649465)"
       stroke="#000000"
       stroke-opacity="1"
       fill="none"
       id="g14"
       style="fill-rule:evenodd" /><g
       font-style="normal"
       font-weight="400"
       fill-opacity="0"
       font-size="54.1667px"
       font-family="'.AppleSystemUIFont'"
       transform="matrix(0.08464545,0,0,0.08464545,94.900775,5.3649465)"
       stroke="none"
       fill="#000000"
       id="g15"
       style="fill-rule:evenodd;stroke-width:1;stroke-linecap:square;stroke-linejoin:bevel"><rect
         width="3430"
         height="2418"
         x="0"
         y="0"
         id="rect14" /></g><g
       font-style="normal"
       stroke-width="1"
       font-weight="400"
       font-size="54.1667px"
       font-family="'.AppleSystemUIFont'"
       stroke-linejoin="bevel"
       stroke-linecap="square"
       transform="matrix(0.08464545,0,0,0.08464545,94.900775,5.3649465)"
       stroke="#000000"
       stroke-opacity="1"
       fill="none"
       id="g16"
       style="fill-rule:evenodd" /><g
       id="g5"
       transform="matrix(0.35426678,0,0,0.35426678,-54.593443,-11.596891)"><g
         font-style="normal"
         font-weight="400"
         fill-opacity="1"
         font-size="54.1667px"
         font-family="'.AppleSystemUIFont'"
         transform="matrix(0.08464545,0,0,0.08464545,94.900775,5.3649465)"
         stroke="none"
         fill="#842e5e"
         id="g17"
         style="fill-rule:evenodd;stroke-width:1;stroke-linecap:square;stroke-linejoin:bevel"><path
           d="m 1471.57,557.857 30.04,10.028 36.58,32.635 29.22,84.764 -10.61,32.753 -14.15,43.46 -9.49,52.991 12.77,53.872 -49.43,21.065 -17.41,-5.384 -27.21,-39.055 -27.51,-77.349 2.59,-46.034 -28.91,-62.793 -37.73,-16.078 10.07,-38.025 51.05,-28.212 50.13,-18.638"
           fill-rule="evenodd"
           vector-effect="none"
           id="path16" /></g><g
         font-style="normal"
         font-weight="400"
         fill-opacity="1"
         font-size="54.1667px"
         font-family="'.AppleSystemUIFont'"
         transform="matrix(0.08464545,0,0,0.08464545,94.900775,5.3649465)"
         stroke="none"
         fill="#33842e"
         id="g18"
         style="fill-rule:evenodd;stroke-width:1;stroke-linecap:square;stroke-linejoin:bevel"><path
           d="m 2149.11,1939.1 14.71,-5.14 20.61,-2.3 17.82,-3.69 29.09,-6.95 29.17,-6.18 32.79,-4.15 4.47,10.39 -2.08,9.51 -1,7.59 0.88,5.9 h 16.1 l -2.97,3.94 -0.71,4.25 h 7.54 l 7.25,2.49 50.57,-13.29 7.3,9.45 12.38,9.77 -8.7,7.29 -13.04,9.7 -13.83,7.37 -18.24,12.82 -12.97,5.11 -30.22,7.09 -25.44,6.74 -34.72,6.95 -21.49,3.82 -40.26,5.24 -35.12,2.92 -18.54,-1.11 -35.86,-0.49 -24.08,0.33 -9.76,-8.42 -26.61,-3.27 124.96,-83.68"
           fill-rule="evenodd"
           vector-effect="none"
           id="path17" /></g><g
         font-style="normal"
         font-weight="400"
         fill-opacity="1"
         font-size="54.1667px"
         font-family="'.AppleSystemUIFont'"
         transform="matrix(0.08464545,0,0,0.08464545,94.900775,5.3649465)"
         stroke="none"
         fill="#2e3384"
         id="g19"
         style="fill-rule:evenodd;stroke-width:1;stroke-linecap:square;stroke-linejoin:bevel"><path
           d="m 1726.43,1983.23 18.01,-2.44 28.28,-0.98 h 34.7 l 20.25,4.5 -3.7,8.09 9.89,2.25 23.31,-5.76 10.96,-2.72 -6.19,-4.73 -19.29,-4.63 -16.22,-10.68 3.02,-15.12 -2.52,-9.19 6.41,-12.03 0.58,-9.65 31.03,-4.82 26.39,-11.21 34.79,-3.74 25.09,-6.08 44.73,-2.15 33.33,-4.28 30.56,-6.04 10.27,11.04 29.4,8.59 10.7,3.93 -18.19,9.94 -22.82,8.83 2.03,3.5 17.28,-4.01 8.91,-0.51 7.37,1.02 8.73,-2.04 17.93,2.54 15.35,3.99 2.31,10.46 5.68,9.78 4.32,7.11 -4.5,9.01 6.4,10.79 1.9,8.2 -14.13,10.38 -11.58,4.35 -16.63,3.86 8.79,1.98 -1.65,3.56 -16.04,0.91 -23.61,2.02 -15.26,2.38 -21.38,3.9 -30.7,3.45 -7.27,-3.45 -7.98,-5.4 -17.59,-1.77 -12.89,-5.85 -9.94,-4.28 -19.27,-0.78 -20.62,-1.59 6.6,8.1 -2.5,7.03 7.09,3.54 -11.79,3.13 -9.23,-1.74 -12.52,1.17 -13.11,0.76 -13.93,1.13 -24.24,0.37 -17.46,-3.23 3.02,-3.65 -13.74,-4.33 -11.12,2.21 -4.82,1.49 -8.06,-2.59 -1.09,-3.4 -17.95,-5.83 8.29,-4.43 1.27,-4.42 -17.21,-2.31 -26.04,-3.88 -20.19,-3.55"
           fill-rule="evenodd"
           vector-effect="none"
           id="path18" /></g><g
         font-style="normal"
         font-weight="400"
         fill-opacity="1"
         font-size="54.1667px"
         font-family="'.AppleSystemUIFont'"
         transform="matrix(0.08464545,0,0,0.08464545,94.900775,5.3649465)"
         stroke="none"
         fill="#842e33"
         id="g20"
         style="fill-rule:evenodd;stroke-width:1;stroke-linecap:square;stroke-linejoin:bevel"><path
           d="m 1029.68,1648.1 29.05,-5.01 h 7.45 l -11.46,-14.28 -10.23,-19.19 -1.86,-23.41 -8.24,-47.9 -6.57,-33.76 5.02,-36.6 -0.1,-12.3 15.14,1.88 13.45,7.18 23.25,-2.87 16.78,7.16 12.53,-7.16 14.1,-4.31 11,-11.56 7.3,4.35 14.52,-1.45 21.51,10.1 16.78,8.6 11.82,14.21 13.98,4.23 24.19,5.62 22.26,-3.84 h 6.72 l 21.17,12.22 9.3,12.83 16.71,21.8 19.19,27.63 6.56,36.9 4.98,-28.56 19.01,-2.07 2.72,8.28 6.21,22.35 12.31,-28.56 22.33,-4.16 25.7,12.42 30.89,-6.18 29.88,2.06 28.63,10.27 33.76,12.15 17.18,29.55 -5.37,24.64 -4.91,49.94 11.28,18.43 15.92,39.39 10.22,30.43 -5.68,25.49 -19.29,21.21 -16.5,24.21 2.51,18.04 15.08,14.82 4.87,14.72 1.6,20.89 0.02,9.15 -5.64,7.23 16.65,2.79 6.35,6.74 -5.89,5.14 -12.64,3.73 -0.84,9.93 18.93,4.38 22.74,5.72 20.63,1 16.92,3.43 22.91,-0.97 16.55,-3.46 15.41,-0.51 -6.43,6.84 -22.63,6.78 -57.75,0.86 -50.97,-3.51 -54.78,-6.03 -49.64,-10.69 -45.95,-18.13 -34.73,-27.31 -44.07,-34.93 -11.85,-8.62 -18.57,-6.94 h -39.24 l -7.14,6.94 -19.12,-3.94 -0.73,7.82 -25.39,-1.93 -18.33,-7.89 -56.88,-19.9 -42.02,-24 -56,-32.78 -53.19,-29.07 -32.841,-44.09 0.967,-21.27 h 34.574 l 15.42,-11.85 0.54,-51.49"
           fill-rule="evenodd"
           vector-effect="none"
           id="path19" /></g><g
         font-style="normal"
         font-weight="400"
         fill-opacity="1"
         font-size="54.1667px"
         font-family="'.AppleSystemUIFont'"
         transform="matrix(0.08464545,0,0,0.08464545,94.900775,5.3649465)"
         stroke="none"
         fill="#802e84"
         id="g21"
         style="fill-rule:evenodd;stroke-width:1;stroke-linecap:square;stroke-linejoin:bevel"><path
           d="m 1867.85,1040.53 h 17.82 l 21.56,-12.55 17.61,-5.35 2.08,-17.72 14.62,-8.796 21.6,-3.503 18.2,-15.668 26.56,-8.631 24.81,6.901 46.19,1.73 26.38,-8.631 17.42,13.836 14.88,15.721 2.97,21.201 1.35,19.66 14.59,38.06 20.3,20.17 25.2,7.36 32.06,42.66 22.87,28.02 18.32,18.72 19.16,61.86 28.73,16.82 18.9,14.92 17.89,53.64 -26.46,3.67 19.46,16.45 14.77,19.95 -18.51,34.02 -16.65,36.85 -14.54,27.46 -13.46,18.55 -8.74,13.31 -7.2,27.75 -13.09,14.39 -8,7.9 13.45,12.49 20.41,9.25 20.2,15.2 -33.78,6 -51.43,34.98 -6.35,11.28 20.24,11.08 38.87,10.88 16.43,17.26 3.72,35.39 0.58,29.52 11.04,29.72 15.6,15.55 17.26,8.01 8.95,7.83 -4.87,14.18 -3.19,18.77 -4.17,30.12 -11.84,15.52 -28.67,13.1 -26.61,5.26 -33.55,3.21 -31.26,8.7 -34.1,7.1 -17.76,-3.51 1.29,-8.51 -15.77,-6.34 -16.41,1.28 -25.57,-9.2 -26.09,-9.67 -14.01,-2.85 -10.27,-11.04 -19.71,3.74 -20.87,4.41 -23.31,2.17 -44.73,2.15 22.45,-25.69 22.35,-19.09 23.74,-23.35 22.67,-32.44 24.65,-14.75 46.21,-23.24 -18.85,3.41 -11.49,-2.27 -3.66,-16.2 5.52,-23.07 26.58,-19.15 28.34,-23.52 37.54,-39.18 6.53,-16.39 10.97,-48.31 -43.05,18.46 -22.18,3.04 -21.99,2.02 -24.92,-15.27 8.06,-15.54 -2.85,-28.68 8.32,-18.91 -5.58,-24.97 -8.43,-27.22 -14.88,-7.02 -17.44,-37.32 5.82,-22.55 -15.46,-69.14 -7.87,-61.92 14.21,-37.45 2.79,-21.25 -28.03,-37.46 -25.93,-2.5 -20.3,4.99 -42.75,-19.93 -26.93,-11.18 -14.35,-42.45 -8.82,-29.31 -14.36,-28.96"
           fill-rule="evenodd"
           vector-effect="none"
           id="path20" /></g><g
         font-style="normal"
         font-weight="400"
         fill-opacity="1"
         font-size="54.1667px"
         font-family="'.AppleSystemUIFont'"
         transform="matrix(0.08464545,0,0,0.08464545,94.900775,5.3649465)"
         stroke="none"
         fill="#84802e"
         id="g22"
         style="fill-rule:evenodd;stroke-width:1;stroke-linecap:square;stroke-linejoin:bevel"><path
           d="m 1611.71,1954.84 -6.35,-6.74 -16.65,-2.79 5.64,-7.23 -0.02,-9.15 -1.6,-20.89 -4.87,-14.72 -15.08,-14.82 -2.51,-18.04 16.5,-24.21 19.29,-21.21 5.68,-25.49 -10.22,-30.43 -15.92,-39.39 -7.26,-59.4 0.89,-8.97 5.37,-24.64 -17.18,-29.55 -33.76,-12.15 -28.63,-10.27 -86.47,-8.3 -22.33,4.16 -6.08,14.08 -15.16,-16.15 -19.01,2.07 -4.98,28.56 -6.56,-36.9 -19.19,-27.63 -16.71,-21.8 -9.3,-12.83 -11.04,-6.36 -8.54,-34.3 -24.28,-43.74 -7.82,-51.03 10.82,-29.26 10.33,-16.6 2.49,-40.14 -2.88,-31.15 11.4,-43.74 12.76,-28.89 30.28,-16.77 15.58,-22.98 15.89,-7.43 34.73,-20.97 11.45,-12.28 1.61,-19.54 13.27,-31.24 21.18,-9.08 20.27,0.5 13.36,-14.29 8,-16.53 20.66,5.88 12.46,7.09 9.9,3.56 13.81,-4.74 50.32,-10.62 26.4,-2.35 27.21,2.35 22.69,1.18 28.16,2.35 19.99,4.72 1.79,22.59 -5.51,15.61 -13.76,7.25 -0.05,14.55 18.34,12.19 19.33,17.16 27.66,9.84 37.94,25.97 25.97,18.64 9.18,-11.19 9,-28.48 40.66,6.17 25.13,17.34 26.93,11.18 42.75,19.93 20.3,-4.99 25.93,2.5 9.38,12.47 18.65,24.99 -2.79,21.25 -14.21,37.45 1.51,21.15 6.36,40.77 5.97,37.85 9.49,31.29 -5.82,22.55 7.66,22.27 9.78,15.05 -1.05,35.23 10.13,25.5 11.49,17.39 2.6,16.04 0.25,12.64 -8.06,15.54 9.39,8.18 15.53,7.09 21.99,-2.02 22.18,-3.04 26,-10.21 17.05,-8.25 -0.98,16.43 -9.99,31.88 -6.53,16.39 -15.59,18.78 -36.1,33.31 -25.4,18.91 -15.37,10.85 -26.43,12.07 -23.54,4.01 -18.07,10.27 -11.2,13.06 -12.53,7.51 -20.54,13.15 -13.62,10.63 -10.87,8.97 -8.31,12.7 -3.58,16.62 -2.46,13.98 -0.73,16.13 0.09,14.65 -6.86,12.31 -4.79,9.29 -13.41,6.12 -16.62,5.04 -14.28,0.45 -14.67,3.14 -6.25,3.95 -12.62,4.72 -9.6,3.77 0.16,4.09 -0.74,5.56 -2.31,6.89 -4.1,5.14 -6.03,4.62 -13.78,2.43 -8.12,0.34 -7.72,3.38 -2.37,3.95 1.09,2.56 -9.66,4.37 -12.26,5.38 -15.31,4.85 -10.5,2.49 -14.31,2.95 -9.69,1.25 -1.93,1.17 -5.79,0.19 -7.24,0.2 h -5.79 l -7.2,0.76 -5.33,-0.57 -8.73,-0.58 -8.73,-0.58 -7.77,-0.39 -5.73,0.78 h -8.21 -9.18 l -7.02,-1.96 -1.73,-2 -3.34,-3.08 -1.23,-1.89 1.58,-2.79 -5.08,-4.66 -4.45,-7 -3.66,-3.15"
           fill-rule="evenodd"
           vector-effect="none"
           id="path21" /></g><g
         font-style="normal"
         font-weight="400"
         fill-opacity="1"
         font-size="54.1667px"
         font-family="'.AppleSystemUIFont'"
         transform="matrix(0.08464545,0,0,0.08464545,94.900775,5.3649465)"
         stroke="none"
         fill="#2f8555"
         id="g23"
         style="fill-rule:evenodd;stroke-width:1;stroke-linecap:square;stroke-linejoin:bevel"><path
           d="m 1215.86,609.422 25.75,-16.938 h -1.89 l -0.69,-2.977 26.43,-14.42 30.84,-2.792 41.86,-8.198 35.87,-2.673 43.83,-11.669 17.83,1.268 13.22,5.142 -6.4,10.635 -21.07,9.695 -30.17,14.497 -20.88,13.715 -14.15,9.502 4.08,28.523 8.54,5.283 29.19,10.795 17.73,32.256 11.18,30.537 -2.59,46.034 -39.01,6.886 -4.12,28.311 5.04,27.006 29.53,-29.412 36.07,44.558 10.14,33.785 34.48,10.654 7.47,21.657 -25.35,13.765 0.87,22.373 -6.39,-5.632 -26.28,25.543 -10.71,-8.57 -19.84,-5.683 -27.62,8.534 -15.22,23.021 -16.47,8.727 -7.82,14.65 -23.55,11.82 -19.23,14.88 -30.67,14.99 -21.18,9.05 -18.52,3.03 -24.76,30.44 -12.57,21.5 6.78,3.09 25.75,-9.25 26.04,-15.34 23.75,-15.27 26.22,-18.2 18.65,-6.03 23.71,-15.02 20.22,-32.63 24.2,-23.335 h 18.09 l 10.43,14.545 h 34.01 l 3.56,20.59 -23.6,17.84 -34.96,14.99 -14,6.03 -14.81,24.27 -7.6,18.35 -25.96,18.46 -23.79,24.75 -19.02,24.87 -16.61,37.46 -11.59,18.75 0.19,24.99 2.88,31.15 -24.44,30.99 -23.6,36.86 3.98,27.33 28.24,41.85 24.28,43.74 -1.59,28.44 h -6.72 l -24.32,-16.99 -18.78,-28.8 -11.29,-23.44 -8.61,-20.78 h -31.95 -15.97 -25.1 l -17.68,5.96 -16.25,-2.97 -32.25,-2.99 -12.39,11.91 -11.9,14.76 -12.1,11.73 0.08,31.77 -5.02,36.6 13.85,67.1 2.82,37.97 h -12.94 l -41.282,-25.11 -33.171,-36.49 -33.395,-29.69 -6.396,10.9 42.615,47.59 57.029,49.9 12.73,21.38 -10,34.1 -30.836,-4.44 -46.453,-36.71 -33.161,-36.39 -40.226,-25.27 -23.526,-36.7 8.654,-27.1 -6.308,-27.8 -5.222,-25.56 -25.309,-70.43 -24.156,-48.42 -13.078,-46.18 -9.62,-84.14 11.619,-74.81 5.701,-43.17 2.308,-57.58 26.287,-61.744 30.365,-48.135 87.253,-82.635 41.618,-65.829 57.46,-78.129 42.62,-49.448 23.34,-34.139 2.79,-24.957 -2.45,-13.151 -3.47,-23.168 6.8,-19.892 19.54,-13.766 38.71,-5.456 21.42,-6.337 22.07,1.04 14.49,5.297 -3.74,13.369 -5.73,18.074 2.19,14.263 9.16,20.89 -4.93,25.775"
           fill-rule="evenodd"
           vector-effect="none"
           id="path22" /></g><g
         font-style="normal"
         font-weight="400"
         fill-opacity="1"
         font-size="54.1667px"
         font-family="'.AppleSystemUIFont'"
         transform="matrix(0.08464545,0,0,0.08464545,94.900775,5.3649465)"
         stroke="none"
         fill="#2e8480"
         id="g24"
         style="fill-rule:evenodd;stroke-width:1;stroke-linecap:square;stroke-linejoin:bevel"><path
           d="m 1182.35,510.714 26.64,-28.177 30.53,-20.874 36.73,-21.322 33.01,-4.983 40.61,-2.045 32.14,-15.107 30.65,-7.1 -15.68,-2.325 -20.48,-6.366 -5.94,-2.309 26.86,-7.436 49.81,-4.248 53.46,-2.027 78.55,-3.191 22.2,-2.783 -0.47,1.949 3.23,1.482 39.62,-0.648 32.4,-1.239 55.38,-3.969 44.12,-2.111 51.17,-0.279 49.63,0.563 40.06,2.825 28.05,2.971 5.19,3.474 27.91,1.698 34.89,-2.163 34.98,1.178 20.35,3.344 h 45.42 l 20.89,1.116 35.92,3.615 11.6,7.017 1.88,15.892 -58.52,1.07 -67.98,-8.043 h -9.45 l -29.31,-1.834 -15.54,2.777 9.01,6.562 -28.22,-3.124 -19.03,-4.381 -43.6,-0.465 -10.39,8.508 22.17,19.963 3.22,9.828 -11.81,14.582 33.89,9.578 35.25,11.464 30.01,12.501 23.06,9.782 18.85,27.183 -18.37,26.413 -0.14,31.561 -17.41,15.283 -52.67,-33.289 -15.35,-26.381 -31.4,-9.155 -34.57,7.602 -22.15,3.118 -22.84,-18.054 -14.54,8.833 21.33,25.478 26.37,6.824 36.02,7.011 3.45,20.272 40.08,23.825 -54.46,8.349 -49.09,-4.2 -44.94,17.112 16.9,29.606 22.18,26.821 -67.79,25.806 -14.11,55.673 -39.62,32.893 16.84,70.386 34.03,54.739 26.05,42.781 25.77,14.554 45.47,3.662 -12.46,39.92 -28.26,77.21 -57.88,-46.17 -41.37,35.12 -30.64,-93.08 -19.99,-4.72 -7.48,-65.766 -43.37,62.236 -27.21,-2.35 -76.72,12.97 -55.44,-68.76 24.48,-36.138 41.96,-42.722 32.45,9.873 20.24,50.907 36.36,-3.471 -21.38,-30.747 -15.17,-36.328 11.67,-19.203 -42.35,-18.754 -6.72,-21.297 -18.38,-37.843 14.15,-43.46 10.61,-32.753 -18.03,-41.595 -11.19,-43.169 -1.34,-36.024 39.12,-16.257 -4.93,-26.51 -25.04,-18.327 -46.53,-11.95 -71.3,-8.915 -31.75,-14.305 -76.64,7.978 -38.86,9.605 -3.36,2.228 -1.49,-1.118 -93.72,23.789"
           fill-rule="evenodd"
           vector-effect="none"
           id="path23" /></g></g><g
       font-style="normal"
       stroke-width="1"
       font-weight="400"
       font-size="54.1667px"
       font-family="'.AppleSystemUIFont'"
       stroke-linejoin="bevel"
       stroke-linecap="square"
       transform="matrix(0.08464545,0,0,0.08464545,94.900775,5.3649465)"
       stroke="#000000"
       stroke-opacity="1"
       fill="none"
       id="g25"
       style="fill-rule:evenodd" /><g
       font-style="normal"
       stroke-width="1"
       font-weight="400"
       font-size="54.1667px"
       font-family="'.AppleSystemUIFont'"
       stroke-linejoin="bevel"
       stroke-linecap="square"
       transform="matrix(0.99975085,0,0,0.99975085,94.900775,5.3649465)"
       stroke="#000000"
       stroke-opacity="1"
       fill="none"
       id="g26"
       style="fill-rule:evenodd" /><g
       font-style="normal"
       stroke-width="1"
       font-weight="400"
       font-size="54.1667px"
       font-family="'.AppleSystemUIFont'"
       stroke-linejoin="bevel"
       stroke-linecap="square"
       transform="matrix(0.99975085,0,0,0.99975085,94.900775,5.3649465)"
       stroke="#000000"
       stroke-opacity="1"
       fill="none"
       id="g27"
       style="fill-rule:evenodd" /><g
       font-style="normal"
       stroke-width="1"
       font-weight="400"
       font-size="54.1667px"
       font-family="'.AppleSystemUIFont'"
       stroke-linejoin="bevel"
       stroke-linecap="square"
       transform="matrix(0.99975085,0,0,0.99975085,94.900775,5.3649465)"
       stroke="#000000"
       stroke-opacity="1"
       fill="none"
       id="g28"
       style="fill-rule:evenodd" /><g
       font-style="normal"
       stroke-width="1"
       font-weight="400"
       font-size="54.1667px"
       font-family="'.AppleSystemUIFont'"
       stroke-linejoin="bevel"
       stroke-linecap="square"
       stroke="#000000"
       stroke-opacity="1"
       fill="none"
       id="g29"
       transform="matrix(0.08466653,0,0,0.08466653,90.450634,1.3598217)"
       style="fill-rule:evenodd" /><g
       font-style="normal"
       stroke-width="1"
       font-weight="400"
       font-size="54.1667px"
       font-family="'.AppleSystemUIFont'"
       stroke-linejoin="bevel"
       stroke-linecap="square"
       transform="matrix(0.99975085,0,0,0.99975085,94.900775,5.3649465)"
       stroke="#000000"
       stroke-opacity="1"
       fill="none"
       id="g30"
       style="fill-rule:evenodd" /><g
       font-style="normal"
       stroke-width="1"
       font-weight="400"
       font-size="54.1667px"
       font-family="'.AppleSystemUIFont'"
       stroke-linejoin="bevel"
       stroke-linecap="square"
       transform="matrix(0.99975085,0,0,0.99975085,94.900775,5.3649465)"
       stroke="#000000"
       stroke-opacity="1"
       fill="none"
       id="g31"
       style="fill-rule:evenodd" /><g
       font-style="normal"
       stroke-width="1"
       font-weight="400"
       font-size="54.1667px"
       font-family="'.AppleSystemUIFont'"
       stroke-linejoin="bevel"
       stroke-linecap="square"
       transform="matrix(0.99975085,0,0,0.99975085,94.900775,5.3649465)"
       stroke="#000000"
       stroke-opacity="1"
       fill="none"
       id="g32"
       style="fill-rule:evenodd" /><g
       font-style="normal"
       stroke-width="1"
       font-weight="400"
       font-size="54.1667px"
       font-family="'.AppleSystemUIFont'"
       stroke-linejoin="bevel"
       stroke-linecap="square"
       transform="matrix(0.99975085,0,0,0.99975085,94.900775,5.3649465)"
       stroke="#000000"
       stroke-opacity="1"
       fill="none"
       id="g33"
       style="fill-rule:evenodd" /><g
       font-style="normal"
       stroke-width="1"
       font-weight="400"
       font-size="54.1667px"
       font-family="'.AppleSystemUIFont'"
       stroke-linejoin="bevel"
       stroke-linecap="square"
       stroke="#000000"
       stroke-opacity="1"
       fill="none"
       id="g34"
       transform="matrix(0.08466653,0,0,0.08466653,90.450634,1.3598217)"
       style="fill-rule:evenodd" /></g></svg>
